# xmcd CD database file
#
# Track frame offsets:
#	182
#	15090
#	33105
#	53887
#	68532
#	83532
#	102705
#	118270
#	136195
#	154290
#
# Disc length: 2319 seconds
#
# Revision: 4
# Processed by: cddbd v1.5.2PL0 Copyright (c) Steve Scherf et al.
# Submitted via: CDex 1.40Release
#
DISCID=74090d0a
DTITLE=Tish Hinojosa - Dreaming from the Labyrinth
DYEAR=1996
DGENRE=Folk
TTITLE0=When It Rains
TTITLE1=Whisper Goodbye
TTITLE2=Edges of a Dream
TTITLE3=Laughing River Running
TTITLE4=Atlántico
TTITLE5=Beyond the Battle of Men
TTITLE6=Prisonary Life
TTITLE7=This Song
TTITLE8=God's Own Open Road
TTITLE9=Sacrifices
EXTD=YEAR: 1996 ID3G: 80
EXTT0=
EXTT1=
EXTT2=
EXTT3=
EXTT4=
EXTT5=
EXTT6=
EXTT7=
EXTT8=
EXTT9=
PLAYORDER=
